<?xml version="1.0" encoding="UTF-8"?><svg id="_イヤー_1" xmlns="http://www.w3.org/2000/svg" viewBox="0 0 1920 1920"><defs><style>.cls-1{fill:#ff8f8f;stroke:#ff2717;stroke-miterlimit:10;stroke-width:4.54px;}</style></defs><circle class="cls-1" cx="955.18" cy="127.25" r="68.73"/><circle class="cls-1" cx="1084.57" cy="106.75" r="68.73"/><circle class="cls-1" cx="1247.71" cy="127.25" r="68.73"/><circle class="cls-1" cx="1367.56" cy="127.25" r="68.73"/><circle class="cls-1" cx="867.07" cy="223.75" r="68.73"/><circle class="cls-1" cx="1036.36" cy="223.75" r="68.73"/><circle class="cls-1" cx="1173.82" cy="252.75" r="68.73"/><circle class="cls-1" cx="1298.83" cy="246.29" r="68.73"/><circle class="cls-1" cx="784.5" cy="379.98" r="68.73"/><circle class="cls-1" cx="978.71" cy="379.98" r="68.73"/><circle class="cls-1" cx="1092.64" cy="365.33" r="68.73"/><circle class="cls-1" cx="1247.71" cy="355.26" r="68.73"/><circle class="cls-1" cx="1367.56" cy="365.33" r="68.73"/><circle class="cls-1" cx="748.99" cy="484.37" r="68.73"/><circle class="cls-1" cx="886.45" cy="484.37" r="68.73"/><circle class="cls-1" cx="1161.37" cy="471.91" r="68.73"/><circle class="cls-1" cx="1325.13" cy="484.37" r="68.73"/><circle class="cls-1" cx="689.94" cy="603.41" r="68.73"/><circle class="cls-1" cx="817.72" cy="584.99" r="68.73"/><circle class="cls-1" cx="1092.64" cy="575.72" r="68.73"/><circle class="cls-1" cx="1212.1" cy="621.83" r="68.73"/><circle class="cls-1" cx="1367.56" cy="603.41" r="68.73"/><circle class="cls-1" cx="647.04" cy="704.02" r="68.73"/><circle class="cls-1" cx="748.99" cy="722.45" r="68.73"/><circle class="cls-1" cx="1161.37" cy="722.45" r="68.73"/><circle class="cls-1" cx="1316.44" cy="690.56" r="68.73"/><circle class="cls-1" cx="526.19" cy="841.49" r="68.73"/><circle class="cls-1" cx="663.65" cy="823.06" r="68.73"/><circle class="cls-1" cx="1105.09" cy="811.03" r="68.73"/><circle class="cls-1" cx="1242.55" cy="841.49" r="68.73"/><circle class="cls-1" cx="1400.78" cy="841.49" r="68.73"/><circle class="cls-1" cx="486.72" cy="960.52" r="68.73"/><circle class="cls-1" cx="611.53" cy="960.52" r="68.73"/><circle class="cls-1" cx="1161.37" cy="960.52" r="68.73"/><circle class="cls-1" cx="1298.83" cy="960.52" r="68.73"/><circle class="cls-1" cx="1554.37" cy="960.52" r="68.73"/><circle class="cls-1" cx="267.87" cy="1079.56" r="68.73"/><circle class="cls-1" cx="417.99" cy="1097.99" r="68.73"/><circle class="cls-1" cx="542.8" cy="1079.56" r="68.73"/><circle class="cls-1" cx="671.95" cy="1097.99" r="68.73"/><circle class="cls-1" cx="817.72" cy="1079.56" r="68.73"/><circle class="cls-1" cx="941.34" cy="1047.07" r="68.73"/><circle class="cls-1" cx="1092.64" cy="1089.12" r="68.73"/><circle class="cls-1" cx="1230.1" cy="1097.99" r="68.73"/><circle class="cls-1" cx="1367.56" cy="1061.14" r="68.73"/><circle class="cls-1" cx="1505.02" cy="1079.56" r="68.73"/><circle class="cls-1" cx="326.92" cy="1190.3" r="68.73"/><circle class="cls-1" cx="474.07" cy="1217.02" r="68.73"/><circle class="cls-1" cx="611.53" cy="1198.6" r="68.73"/><circle class="cls-1" cx="748.99" cy="1184.53" r="68.73"/><circle class="cls-1" cx="891.98" cy="1217.02" r="68.73"/><circle class="cls-1" cx="1036.36" cy="1217.02" r="68.73"/><circle class="cls-1" cx="1184.9" cy="1208.08" r="68.73"/><circle class="cls-1" cx="1298.83" cy="1198.6" r="68.73"/><circle class="cls-1" cx="1426.6" cy="1174.3" r="68.73"/><circle class="cls-1" cx="1573.75" cy="1224" r="68.73"/><circle class="cls-1" cx="267.87" cy="1317.64" r="68.73"/><circle class="cls-1" cx="395.65" cy="1327.76" r="68.73"/><circle class="cls-1" cx="542.8" cy="1292.73" r="68.73"/><circle class="cls-1" cx="689.94" cy="1301.54" r="68.73"/><circle class="cls-1" cx="817.72" cy="1317.64" r="68.73"/><circle class="cls-1" cx="955.18" cy="1317.64" r="68.73"/><circle class="cls-1" cx="1092.64" cy="1317.64" r="68.73"/><circle class="cls-1" cx="1230.1" cy="1335.32" r="68.73"/><circle class="cls-1" cx="1367.56" cy="1317.64" r="68.73"/><circle class="cls-1" cx="1505.02" cy="1317.64" r="68.73"/><circle class="cls-1" cx="1023.91" cy="1422.82" r="68.73"/><circle class="cls-1" cx="1161.37" cy="1436.68" r="68.73"/><circle class="cls-1" cx="1289.14" cy="1422.82" r="68.73"/><circle class="cls-1" cx="1573.75" cy="1436.68" r="68.73"/><circle class="cls-1" cx="1092.64" cy="1555.72" r="68.73"/><circle class="cls-1" cx="1253.63" cy="1543.27" r="68.73"/><circle class="cls-1" cx="1023.91" cy="1674.76" r="68.73"/><circle class="cls-1" cx="1173.82" cy="1680.73" r="68.73"/><circle class="cls-1" cx="1298.83" cy="1674.76" r="68.73"/><circle class="cls-1" cx="823.25" cy="1812.22" r="68.73"/><circle class="cls-1" cx="955.18" cy="1793.8" r="68.73"/><circle class="cls-1" cx="1092.64" cy="1781.05" r="68.73"/><circle class="cls-1" cx="1242.55" cy="1793.8" r="68.73"/><circle class="cls-1" cx="1367.56" cy="1793.8" r="68.73"/></svg>